<?xml version="1.0" encoding="UTF-8"?>
<svg id="Layer_1" data-name="Layer 1" xmlns="http://www.w3.org/2000/svg" viewBox="0 0 161 161">
  <defs>
    <style>
      .cls-1 {
        fill: #00c1ee;
      }

      .cls-1, .cls-2, .cls-3, .cls-4, .cls-5, .cls-6 {
        stroke: #000;
        stroke-width: 3px;
      }

      .cls-1, .cls-5 {
        stroke-miterlimit: 10;
      }

      .cls-2 {
        fill: #fff;
      }

      .cls-2, .cls-3, .cls-4, .cls-6 {
        stroke-linecap: round;
        stroke-linejoin: round;
      }

      .cls-3, .cls-5 {
        fill: #625355;
      }

      .cls-4 {
        fill: #ff5844;
      }

      .cls-6 {
        fill: #30d095;
        opacity: .8;
      }
    </style>
  </defs>
  <circle class="cls-6" cx="80.5" cy="80.5" r="79"/>
  <rect class="cls-5" x="29.56" y="96.8" width="12.6" height="22.61" rx="6.3" ry="6.3"/>
  <rect class="cls-5" x="118.73" y="96.8" width="12.6" height="22.61" rx="6.3" ry="6.3"/>
  <rect class="cls-5" x="22.11" y="93.88" width="14.64" height="27.52" rx="6.3" ry="6.3"/>
  <rect class="cls-5" x="124.26" y="93.88" width="14.64" height="27.52" rx="6.3" ry="6.3"/>
  <rect class="cls-4" x="24.15" y="73.41" width="113.02" height="36.82" rx="8.85" ry="8.85"/>
  <polygon class="cls-4" points="122.87 39.59 80.66 39.59 38.45 39.59 33 73.41 80.66 73.41 128.32 73.41 122.87 39.59"/>
  <polygon class="cls-3" points="80.66 99.82 65.34 99.82 65.34 117.18 80.66 117.18 95.98 117.18 95.98 99.82 80.66 99.82"/>
  <circle class="cls-2" cx="37.6" cy="98.8" r="6.98"/>
  <circle class="cls-2" cx="124.62" cy="98.8" r="6.98"/>
  <polygon class="cls-1" points="117.87 44.59 80.66 44.59 43.45 44.59 38.81 73.41 80.66 73.41 122.51 73.41 117.87 44.59"/>
</svg>